<?xml version="1.0" encoding="utf-8"?>
<!-- Svg Vector Icons : http://www.onlinewebfonts.com/icon -->
<!DOCTYPE svg PUBLIC "-//W3C//DTD SVG 1.1//EN" "http://www.w3.org/Graphics/SVG/1.1/DTD/svg11.dtd">
<svg version="1.1" xmlns="http://www.w3.org/2000/svg" xmlns:xlink="http://www.w3.org/1999/xlink" x="0px" y="0px" viewBox="0 0 1000 1000" enable-background="new 0 0 1000 1000" xml:space="preserve">
<metadata> Svg Vector Icons : http://www.onlinewebfonts.com/icon </metadata>
<g><path d="M462.3,613.1h75.4v-75.4h226.2c63,0,75.3,0.9,75.4,75.4l0,0h75.4v-75.4c-0.1-50-26.1-75.3-75.4-75.4l-301.5,0v-75.4h-75.4v75.4l-287.6,5.2c-49.3,0-89.3,40.4-89.3,90.4v55.2h75.4c0-57.6-3.9-75.3,75.4-75.4h226.2V613.1z M355.8,311.5h288.2c24.5,0,44.4-22,44.4-49.2V134.6c0-27.2-19.9-49.2-44.4-49.2l-288.2,0c-24.5,0-44.3,22-44.3,49.2v127.7C311.5,289.5,331.4,311.5,355.8,311.5z M202.5,688.5H43.7c-18.6,0-33.7,21.2-33.7,47.4v131.3c0,26.2,15.1,47.4,33.7,47.4h158.8c18.6,0,33.7-21.2,33.7-47.4V735.9C236.2,709.7,221,688.5,202.5,688.5z M579.4,688.5H420.6c-18.6,0-33.7,21.2-33.7,47.4v131.3c0,26.2,15.1,47.4,33.7,47.4h158.8c18.6,0,33.7-21.2,33.7-47.4V735.9C613.1,709.7,598,688.5,579.4,688.5z M956.3,688.5H797.5c-18.6,0-33.7,21.2-33.7,47.4v131.3c0,26.2,15.1,47.4,33.7,47.4h158.8c18.6,0,33.7-21.2,33.7-47.4V735.9C990,709.7,974.9,688.5,956.3,688.5z"/></g>
</svg>