<?xml version="1.0" encoding="utf-8"?>
<!-- Svg Vector Icons : http://www.onlinewebfonts.com/icon -->
<!DOCTYPE svg PUBLIC "-//W3C//DTD SVG 1.1//EN" "http://www.w3.org/Graphics/SVG/1.1/DTD/svg11.dtd">
<svg version="1.1" xmlns="http://www.w3.org/2000/svg" xmlns:xlink="http://www.w3.org/1999/xlink" x="0px" y="0px" viewBox="0 0 1000 1000" enable-background="new 0 0 1000 1000" xml:space="preserve">
<metadata> Svg Vector Icons : http://www.onlinewebfonts.com/icon </metadata>
<g><g transform="translate(0.000000,512.000000) scale(0.100000,-0.100000)"><path d="M4750.3,4976.5c-166.5-55.5-306.2-162.7-401.9-304.3c-105.3-158.8-139.7-289-130.1-484.2c23-424.8,352.1-736.8,780.8-736.8s757.8,311.9,780.8,736.8c9.6,195.2-24.9,325.3-132,486.1C5454.5,4963.1,5081.3,5089.4,4750.3,4976.5z"/><path d="M3984.8,3229.3c-327.2-88-518.6-279.4-572.2-572.2c-11.5-61.2-21-321.5-21-577.9v-465h782.7h784.6l-76.5,168.4c-42.1,91.9-212.4,459.3-377,817.1C4164.7,3336.5,4202.9,3288.6,3984.8,3229.3z"/><path d="M5776,3208.3c-13.4-30.6-183.7-394.2-375.1-809.5c-191.4-415.3-352.1-761.7-357.9-769.3c-3.8-9.6,346.4-15.3,777-15.3h786.5v455.4c0,248.8-9.6,509-19.1,576c-49.8,302.4-245,497.6-583.7,585.6C5843,3271.4,5808.5,3269.5,5776,3208.3z"/><path d="M4547.4,3103c239.2-539.7,440.2-972.2,451.6-972.2c11.5,0,179.9,359.8,451.6,972.2l45.9,99.5H4999h-497.6L4547.4,3103z"/><path d="M4884.2,743.4V178.9H3219.3H1554.4V-443v-623.9l149.3,5.7l147.4,5.7l5.7,465l3.8,463.1H4999h3138.5l3.8-463.1l5.7-465l149.3-5.7l147.4-5.7V-443v621.9H6817.1H5190.4v564.5V1308h-153.1h-153.1V743.4z"/><path d="M1464.5-1398c-126.3-40.2-237.3-114.8-338.7-220.1C766-2004.6,878.9-2620.8,1353.5-2856.2c187.5-93.8,396.1-109.1,581.8-45.9c683.2,231.5,748.3,1140.6,105.3,1456.3c-114.8,57.4-149.3,65-311.9,68.9C1611.8-1373.1,1516.1-1380.8,1464.5-1398z"/><path d="M8045.6-1405.6c-225.8-80.4-421-271.7-495.7-488c-23-67-34.4-155-34.4-271.7c0-153.1,7.7-185.6,61.2-298.5c199-422.9,662.1-593.2,1067.8-392.3c386.6,191.4,545.4,643,365.5,1035.3c-67,147.4-220.1,302.4-371.3,377c-111,55.5-147.4,63.1-308.1,67C8189.2-1371.2,8124.1-1378.8,8045.6-1405.6z"/><path d="M674.1-3158.6c-214.3-61.2-377-170.3-472.7-321.5c-88-139.7-101.4-250.7-101.4-794.2v-503.3h775c426.7,0,775,5.7,775,15.3c0,7.7-166.5,375.1-371.3,817.2l-371.2,803.8l-72.7,3.8C792.8-3135.6,721.9-3145.2,674.1-3158.6z"/><path d="M2130.4-3924.1c-200.9-436.3-371.3-805.7-377-822.9c-11.5-28.7,61.2-30.6,765.5-30.6h778.9l-5.7,560.7c-5.7,556.9-5.7,558.8-55.5,664.1c-59.3,122.5-174.2,243-302.4,313.8c-101.4,55.5-285.1,107.2-377,107.2h-61.2L2130.4-3924.1z"/><path d="M7259.1-3162.4c-225.8-61.2-409.5-204.8-497.6-390.4c-49.7-105.3-49.7-107.2-55.5-664.1l-5.7-560.7h778.9c637.3,0,775,3.8,767.4,24.9c-5.7,15.3-174.2,384.7-377,822.9l-367.4,798l-70.8-1.9C7393.1-3133.7,7316.5-3147.1,7259.1-3162.4z"/><path d="M9046.5-3231.3c-23-55.5-191.4-419.1-371.3-809.5c-179.9-388.5-327.2-713.8-327.2-721.5c0-7.6,350.2-15.3,776.9-15.3h775l-5.7,551.2l-5.7,549.2l-55.5,118.7c-65,139.7-199,277.5-333,334.9c-116.7,51.7-264.1,91.8-344.5,91.8C9098.2-3131.8,9088.6-3139.4,9046.5-3231.3z"/><path d="M1209.9-3185.4c0-13.4,474.6-1075.5,488-1090.8c5.7-7.7,488,1064,488,1087c0,11.5-166.5,19.1-488,19.1C1430-3170.1,1209.9-3177.7,1209.9-3185.4z"/><path d="M7812.2-3189.2c0-19.1,409.5-937.7,463.1-1043c24.9-44,40.2-17.2,269.8,493.7c134,296.6,243,547.3,243,555c0,7.7-220.1,13.4-488,13.4C7974.8-3170.1,7812.2-3175.8,7812.2-3189.2z"/></g></g>
</svg>